Coordinates
version=1
nRows=9
nColumns=24
inDegrees=yes

Units are S.I. units (second, meters, Newtons, ...)
Angles are in degrees.

endheader
time	pelvis_tilt	pelvis_list	pelvis_rotation	pelvis_tx	pelvis_ty	pelvis_tz	hip_flexion_r	hip_adduction_r	hip_rotation_r	knee_angle_r	ankle_angle_r	subtalar_angle_r	mtp_angle_r	hip_flexion_l	hip_adduction_l	hip_rotation_l	knee_angle_l	ankle_angle_l	subtalar_angle_l	mtp_angle_l	lumbar_extension	lumbar_bending	lumbar_rotation
      1.52033333	      0.62781928	      5.53206277	     -1.20481870	      0.45669427	      0.90962953	      0.28981070	     12.03216195	     -9.74266350	     -9.23395496	    -67.68852292	      7.70122620	      8.34233708	      7.63265039	      8.00755305	     10.03773975	      0.27018323	    -20.37472100	     11.37944569	     -7.61484573	      5.52579841	     -7.40750489	     -8.63739089	      3.49722610
      1.52450000	      0.74398590	      5.32035844	     -1.01835848	      0.46163432	      0.91101086	      0.28958351	     12.48453120	     -9.48842438	     -9.33505657	    -67.16910492	      8.15210769	      8.15105737	      7.55428828	      7.23057090	      9.84947796	      0.58798263	    -19.79926139	     11.30087214	     -7.65667243	      5.53200774	     -7.55151229	     -8.37299855	      3.15538683
      1.52866667	      0.86075231	      5.10638165	     -0.82405680	      0.46655155	      0.91236306	      0.28933920	     12.92333909	     -9.23450507	     -9.44566469	    -66.59860669	      8.56978772	      7.94835734	      7.46640603	      6.45693174	      9.65540000	      0.91574976	    -19.22302392	     11.21328837	     -7.71243821	      5.53655675	     -7.69773711	     -8.10237055	      2.80892912
      1.53283333	      0.98570481	      4.89139355	     -0.62059667	      0.47144771	      0.91369708	      0.28908412	     13.33895609	     -8.98230882	     -9.56909762	    -65.97730330	      8.95787325	      7.73471964	      7.36702471	      5.67837121	      9.45515825	      1.25203007	    -18.64568610	     11.11596071	     -7.78020098	      5.53958041	     -7.85428096	     -7.82758907	      2.45381442
      1.53700000	      1.10912856	      4.66828551	     -0.40822256	      0.47632925	      0.91499219	      0.28881768	     13.74099893	     -8.72299739	     -9.70354120	    -65.30433217	      9.31667337	      7.50300991	      7.26491789	      4.91018768	      9.23863494	      1.58522866	    -18.07920095	     11.01997854	     -7.83593041	      5.54182055	     -8.01042587	     -7.53906237	      2.10188282
      1.54116667	      1.22435694	      4.43827596	     -0.18751244	      0.48116612	      0.91623890	      0.28856225	     14.14098379	     -8.44929016	     -9.83351543	    -64.58401786	      9.66067707	      7.25751536	      7.17603590	      4.16976041	      9.00517824	      1.91324111	    -17.53961457	     10.90851898	     -7.87156067	      5.54266648	     -8.17999731	     -7.25506267	      1.78311038
      1.54533333	      1.36078728	      4.21553695	      0.03671134	      0.48603187	      0.91748360	      0.28828370	     14.49749621	     -8.19693603	     -9.98835155	    -63.80871243	      9.93290796	      6.99288588	      7.06774276	      3.39143447	      8.77608024	      2.25067692	    -16.96522508	     10.81452337	     -7.94416386	      5.54416783	     -8.33612377	     -6.96991896	      1.39884023
      1.54950000	      1.49158483	      4.00467888	      0.26531483	      0.49087938	      0.91866059	      0.28798255	     14.85223758	     -7.96498135	    -10.14998281	    -63.00182363	     10.18946127	      6.71541976	      6.93487389	      2.62688856	      8.55554006	      2.59187110	    -16.39722936	     10.70291111	     -8.02922833	      5.54584790	     -8.49446018	     -6.67889641	      1.00035523
      1.55366667	      1.61291958	      3.78852866	      0.50000122	      0.49569783	      0.91978341	      0.28769012	     15.20522651	     -7.72452176	    -10.31350059	    -62.14919565	     10.41980121	      6.41799721	      6.78977792	      1.88577323	      8.31887699	      2.91812044	    -15.84411737	     10.59174435	     -8.09359571	      5.54913101	     -8.64253578	     -6.38749879	      0.62102239
